<svg width="24" height="28" viewBox="0 0 24 28" fill="none" xmlns="http://www.w3.org/2000/svg">
    <path d="M12.7071 8.00301C13.0976 7.57057 13.0976 6.86944 12.7071 6.437C12.3166 6.00456 11.6834 6.00456 11.2929 6.437L5.29289 13.081C4.91432 13.5002 4.90107 14.1752 5.26285 14.6123L10.7628 21.2563C11.136 21.7071 11.7686 21.7375 12.1757 21.3243C12.5828 20.911 12.6103 20.2106 12.2372 19.7598L7.38414 13.8973L12.7071 8.00301Z"
          fill="#6993FF"/>
    <path opacity="0.3"
          d="M19.7071 8.00301C20.0976 7.57057 20.0976 6.86944 19.7071 6.437C19.3166 6.00456 18.6834 6.00456 18.2929 6.437L12.2929 13.081C11.9143 13.5002 11.9011 14.1752 12.2628 14.6123L17.7628 21.2563C18.136 21.7071 18.7686 21.7375 19.1757 21.3243C19.5828 20.911 19.6103 20.2106 19.2372 19.7598L14.3841 13.8973L19.7071 8.00301Z"
          fill="#6993FF"/>
</svg>
