<svg width="20" height="20" viewBox="0 0 20 20" fill="none" xmlns="http://www.w3.org/2000/svg">
    <path opacity="0.3"
          d="M18.4166 9.58335V10.5C18.4166 11 18.0833 11.3333 17.6666 11.4166L16.5833 11.5834C16.4166 12.25 16.1666 12.9166 15.75 13.5L16.4166 14.4166C16.6666 14.75 16.6666 15.3333 16.3333 15.6666L15.6666 16.3333C15.3333 16.6667 14.8333 16.6666 14.4166 16.4166L13.5 15.75C12.9166 16.0834 12.25 16.4167 11.5833 16.5834L11.4166 17.6666C11.3333 18.0833 10.9166 18.4167 10.5 18.4167H9.58329C9.08329 18.4167 8.74996 18.0833 8.66662 17.6666L8.49996 16.5834C7.83329 16.4167 7.16662 16.1667 6.58329 15.75L5.66663 16.4166C5.33329 16.6666 4.74996 16.6667 4.41663 16.3333L3.74996 15.6666C3.41663 15.3333 3.41662 14.8333 3.66662 14.4166L4.33329 13.5C3.99996 12.9166 3.66662 12.25 3.49996 11.5834L2.41662 11.4166C1.99996 11.3333 1.66663 10.9167 1.66663 10.5V9.58335C1.66663 9.08335 1.99996 8.75004 2.41662 8.66671L3.49996 8.49998C3.66662 7.83331 3.91662 7.16671 4.33329 6.58337L3.66662 5.66663C3.41662 5.33329 3.41663 4.74996 3.74996 4.41663L4.41663 3.75002C4.74996 3.41669 5.24996 3.41671 5.66663 3.66671L6.58329 4.33331C7.16662 3.99998 7.83329 3.66665 8.49996 3.49998L8.66662 2.41671C8.74996 2.00004 9.16663 1.66669 9.58329 1.66669H10.5C11 1.66669 11.3333 2.00004 11.4166 2.41671L11.5833 3.49998C12.25 3.66665 12.9166 3.91665 13.5 4.33331L14.4166 3.66671C14.75 3.41671 15.3333 3.41669 15.6666 3.75002L16.3333 4.41663C16.6666 4.74996 16.6666 5.24996 16.4166 5.66663L15.75 6.58337C16.0833 7.16671 16.4166 7.83331 16.5833 8.49998L17.6666 8.66671C18.0833 8.75004 18.4166 9.16669 18.4166 9.58335ZM10.0833 7.16667C8.49996 7.16667 7.16662 8.5 7.16662 10.0833C7.16662 11.6667 8.49996 13 10.0833 13C11.6666 13 13 11.6667 13 10.0833C13 8.5 11.6666 7.16667 10.0833 7.16667Z"
          fill="#A1A5B7"/>
    <path d="M14.25 10.0833C14.25 12.4166 12.4166 14.25 10.0833 14.25C7.74996 14.25 5.91663 12.4166 5.91663 10.0833C5.91663 7.74996 7.74996 5.91663 10.0833 5.91663C12.4166 5.91663 14.25 7.74996 14.25 10.0833ZM10.0833 8.41663C9.16663 8.41663 8.41663 9.16663 8.41663 10.0833C8.41663 11 9.16663 11.75 10.0833 11.75C11 11.75 11.75 11 11.75 10.0833C11.75 9.16663 11 8.41663 10.0833 8.41663Z"
          fill="#A1A5B7"/>
</svg>
